<?xml version="1.0" standalone="no"?>
<!DOCTYPE svg PUBLIC "-//W3C//DTD SVG 20010904//EN"
 "http://www.w3.org/TR/2001/REC-SVG-20010904/DTD/svg10.dtd">
<svg version="1.0" xmlns="http://www.w3.org/2000/svg"
 width="512.000000pt" height="512.000000pt" viewBox="0 0 512.000000 512.000000"
 preserveAspectRatio="xMidYMid meet">
<metadata>
Created by potrace 1.14, written by Peter Selinger 2001-2017
</metadata>
<g transform="translate(0.000000,512.000000) scale(0.100000,-0.100000)"
fill="#000000" stroke="none">
<path d="M3636 4693 c-3 -3 -74 -15 -98 -16 -10 -1 -18 -5 -18 -10 0 -4 -4 -6
-8 -3 -5 3 -20 -1 -35 -9 -15 -8 -27 -12 -27 -10 0 3 -25 -9 -57 -25 -31 -16
-60 -27 -65 -24 -4 3 -8 1 -8 -4 0 -11 -50 -35 -58 -28 -3 3 -12 -3 -21 -13
-9 -10 -45 -41 -81 -69 -36 -28 -73 -58 -82 -66 -10 -9 -20 -16 -24 -16 -3 0
-34 -28 -69 -62 -71 -71 -136 -153 -128 -162 4 -3 1 -6 -6 -6 -6 0 -16 -11
-21 -25 -5 -14 -15 -25 -21 -25 -7 0 -9 -3 -6 -7 4 -3 -4 -20 -16 -37 -34 -45
-42 -60 -29 -52 7 4 3 -9 -9 -28 -11 -20 -22 -41 -23 -48 -1 -7 -10 -30 -19
-52 -9 -21 -17 -45 -17 -52 0 -8 -4 -14 -8 -14 -4 0 -9 -15 -11 -32 -4 -42 -9
-73 -11 -73 -1 0 -4 -16 -7 -35 -2 -19 -9 -41 -15 -47 -7 -9 -7 -13 1 -13 7 0
8 -8 2 -22 -4 -13 -7 -31 -6 -40 2 -10 0 -18 -3 -18 -9 0 -11 -31 -16 -213 -2
-82 -8 -153 -14 -159 -7 -7 -17 6 -33 38 -12 27 -21 52 -21 57 1 4 -3 7 -9 7
-5 0 -7 5 -4 10 3 6 -1 17 -9 26 -9 8 -16 24 -16 34 0 10 -4 20 -9 22 -5 1
-11 10 -13 18 -3 14 -7 21 -36 55 -7 8 -10 15 -7 15 5 0 -17 29 -42 55 -7 8
-13 18 -13 24 0 6 -5 11 -10 11 -6 0 -24 14 -40 30 -16 17 -34 30 -39 30 -5 0
-16 6 -23 13 -7 6 -33 25 -58 42 -25 16 -47 32 -50 35 -3 3 -12 6 -20 8 -8 2
-22 10 -30 17 -17 15 -71 39 -82 37 -5 -1 -8 3 -8 9 0 5 -4 7 -10 4 -5 -3 -10
-2 -10 4 0 5 -8 8 -17 7 -10 -2 -36 3 -58 11 -22 8 -65 15 -96 17 -30 1 -61 6
-69 11 -8 5 -11 4 -6 -3 4 -7 -1 -10 -14 -9 -11 1 -20 5 -20 10 0 4 -6 5 -12
0 -7 -4 -44 -9 -83 -10 -111 -5 -188 -19 -179 -34 3 -5 -2 -6 -10 -3 -9 3 -16
2 -16 -3 0 -10 -50 -38 -62 -35 -5 1 -8 -2 -8 -8 0 -5 -7 -10 -15 -10 -8 0
-15 -4 -15 -10 0 -5 -7 -10 -15 -10 -8 0 -15 -5 -15 -11 0 -5 -4 -8 -9 -4 -5
3 -12 1 -16 -5 -4 -6 -11 -7 -17 -4 -7 4 -8 2 -4 -4 4 -7 4 -12 -1 -12 -8 0
-90 -66 -104 -85 -54 -67 -153 -170 -161 -167 -4 1 -8 -2 -8 -7 0 -5 -15 -14
-32 -21 -46 -18 -100 -59 -93 -71 4 -5 2 -9 -2 -9 -15 0 -12 -41 3 -47 8 -3
27 0 42 8 81 39 117 48 206 53 51 2 76 -3 166 -32 8 -3 26 -7 40 -9 13 -2 30
-9 37 -15 7 -6 13 -8 13 -4 0 3 22 -5 49 -18 27 -14 60 -27 74 -30 14 -2 35
-9 46 -16 12 -6 21 -8 21 -5 0 3 17 -2 38 -11 47 -21 88 -24 291 -24 108 0
169 4 178 12 8 6 55 11 112 12 55 1 97 4 94 8 -2 5 7 4 20 -1 14 -6 27 -8 30
-5 2 2 16 0 31 -5 17 -7 26 -7 26 -1 0 6 15 4 35 -4 19 -8 35 -12 35 -8 0 4 4
2 8 -4 11 -18 85 -54 109 -54 13 0 23 -5 23 -11 0 -5 5 -7 11 -3 8 4 8 0 0
-15 -11 -20 -22 -24 -63 -24 -10 0 -18 -4 -18 -9 0 -6 -7 -8 -15 -4 -8 3 -15
0 -15 -6 0 -6 -3 -8 -7 -5 -5 6 -26 -14 -63 -60 -6 -7 -10 -15 -9 -19 3 -11
-25 -44 -38 -44 -7 0 -13 -7 -13 -16 0 -8 -4 -12 -10 -9 -5 3 -10 2 -10 -3 0
-10 -177 -187 -202 -204 -7 -4 -10 -8 -5 -8 4 0 -1 -8 -10 -18 -10 -11 -21
-17 -25 -15 -5 2 -8 -3 -8 -12 0 -9 -4 -14 -9 -11 -5 3 -19 -10 -32 -29 -13
-19 -27 -35 -31 -35 -5 0 -8 -7 -8 -16 0 -8 -4 -13 -9 -9 -5 3 -12 -4 -16 -15
-4 -11 -11 -18 -16 -15 -5 4 -9 3 -9 -2 0 -13 -94 -113 -107 -113 -6 0 -14 -7
-17 -16 -3 -8 -10 -12 -16 -9 -5 3 -10 1 -10 -5 0 -8 -22 -10 -70 -7 -46 3
-78 0 -95 -9 -14 -7 -25 -10 -25 -6 0 4 -4 3 -8 -3 -12 -17 -92 -57 -92 -46 0
20 -45 22 -85 5 -38 -17 -175 -27 -175 -13 0 8 -103 5 -116 -4 -6 -3 -19 -4
-30 -3 -10 2 -23 1 -29 -3 -5 -3 -12 -6 -15 -7 -32 -5 -89 -26 -92 -34 -3 -8
-39 -17 -103 -25 -11 -1 -20 -3 -20 -5 0 -1 -10 -3 -23 -4 -12 -2 -33 -13 -47
-26 -21 -19 -24 -30 -20 -65 3 -33 -1 -47 -16 -64 -18 -19 -24 -22 -44 -21 -8
1 -31 -19 -89 -74 -28 -27 -44 -45 -36 -40 8 4 1 -9 -17 -31 -18 -21 -30 -42
-27 -47 3 -4 2 -8 -3 -8 -9 0 -49 -91 -45 -102 1 -5 -2 -8 -6 -8 -10 0 -33
-46 -38 -75 -12 -77 -15 -110 -18 -185 -3 -54 0 -90 8 -99 7 -10 7 -13 0 -8
-7 4 -11 -7 -10 -33 0 -22 3 -40 6 -40 4 0 7 -15 8 -32 1 -31 8 -73 12 -73 1
0 3 -9 5 -20 6 -38 14 -64 24 -83 6 -11 8 -22 5 -25 -3 -3 -1 -13 4 -24 5 -10
14 -29 20 -43 15 -39 56 -123 67 -138 17 -24 140 -145 174 -172 18 -14 42 -33
54 -43 11 -10 31 -20 44 -23 13 -4 23 -10 23 -14 0 -4 11 -11 25 -14 14 -4 25
-11 25 -17 0 -6 5 -7 11 -3 6 3 14 3 18 -2 5 -8 78 -45 84 -43 1 0 20 -6 42
-14 22 -8 49 -18 60 -22 59 -22 541 -22 563 -1 3 3 12 0 20 -7 9 -6 13 -7 9
-1 -4 7 4 11 22 12 15 0 54 8 87 17 32 9 66 17 74 18 8 1 17 4 20 7 3 3 37 16
75 29 39 12 77 25 85 29 8 3 18 6 23 7 4 2 9 4 12 5 3 1 8 3 13 4 11 2 157
100 160 109 2 4 10 7 17 7 8 0 19 8 24 18 6 9 11 13 11 9 0 -17 110 88 155
148 16 22 36 46 45 53 13 11 13 13 0 7 -13 -6 -13 -5 0 7 24 21 72 88 63 88
-4 0 0 5 10 11 9 5 17 15 17 20 0 6 13 30 30 53 16 24 26 46 23 50 -4 3 -1 6
5 6 7 0 11 3 10 8 0 4 11 34 27 67 15 33 28 66 29 73 1 8 9 18 17 23 12 7 12
9 -1 9 -10 0 -11 3 -3 8 6 4 15 21 19 37 4 17 10 35 13 40 4 6 6 20 5 32 0 13
3 23 8 23 5 0 8 6 5 13 -2 6 5 44 16 82 11 39 20 76 20 83 0 6 5 12 10 12 6 0
8 3 5 6 -4 3 -2 20 3 37 6 18 12 42 15 54 2 12 8 33 13 45 5 13 9 26 9 31 0
10 13 88 19 112 2 11 6 43 8 70 2 28 4 50 5 50 1 0 3 37 5 82 2 46 6 87 9 92
4 5 0 12 -6 14 -7 3 -8 6 -3 6 15 1 8 401 -7 416 -4 4 -3 15 2 25 5 10 6 20 2
24 -3 4 -7 26 -8 49 -4 99 -8 127 -16 127 -5 0 -7 4 -4 8 14 24 -100 195 -124
185 -3 -2 -13 0 -22 3 -23 7 -24 57 -2 78 8 9 12 16 8 16 -4 0 4 8 17 19 13
10 49 44 80 74 31 31 63 57 70 59 8 2 21 10 29 19 8 8 47 32 85 54 39 21 78
45 87 54 30 28 48 42 48 36 0 -2 8 2 18 10 9 8 20 15 25 15 4 0 13 4 20 10 38
32 206 138 211 133 3 -4 6 -1 6 6 0 7 5 9 10 6 6 -3 10 -2 10 3 0 6 12 13 27
17 15 3 30 10 33 13 3 4 21 15 40 24 29 15 107 66 145 96 6 4 28 22 50 39 22
17 63 43 90 58 28 15 54 34 58 41 5 8 12 12 18 9 5 -4 9 -2 9 2 0 10 86 73 98
73 4 0 22 13 40 29 17 17 32 27 32 23 0 -3 15 11 34 31 18 20 39 37 45 37 6 0
11 5 11 11 0 5 5 7 10 4 6 -3 10 1 10 10 0 9 4 14 8 11 5 -3 34 19 65 48 32
29 57 51 57 48 0 -3 8 3 19 14 27 28 61 55 61 48 0 -3 14 6 32 21 18 15 42 31
55 36 13 5 23 13 23 19 0 6 4 9 9 6 5 -3 14 1 21 9 7 8 19 15 26 15 8 0 14 5
14 10 0 6 7 10 15 10 8 0 15 5 15 12 0 6 3 9 6 5 4 -3 13 0 21 8 15 16 26 54
15 56 -4 1 -34 3 -67 5 -208 12 -216 13 -286 39 -20 8 -39 11 -43 8 -3 -4 -6
-2 -6 4 0 6 -16 10 -35 9 -19 -1 -35 1 -35 4 0 3 -8 6 -17 7 -10 0 -38 5 -63
10 -25 5 -56 9 -68 8 -12 -1 -22 1 -22 4 0 3 -28 7 -63 8 -125 4 -359 8 -361
6z"/>
</g>
</svg>
